<mxfile host="Electron" agent="Mozilla/5.0 (Windows NT 10.0; Win64; x64) AppleWebKit/537.36 (KHTML, like Gecko) draw.io/24.7.17 Chrome/128.0.6613.36 Electron/32.0.1 Safari/537.36" version="24.7.17">
  <diagram id="R2lEEEUBdFMjLlhIrx00" name="Page-1">
    <mxGraphModel dx="1400" dy="839" grid="1" gridSize="10" guides="1" tooltips="1" connect="1" arrows="1" fold="1" page="1" pageScale="1" pageWidth="2000" pageHeight="2000" math="0" shadow="0" extFonts="Permanent Marker^https://fonts.googleapis.com/css?family=Permanent+Marker">
      <root>
        <mxCell id="0" />
        <mxCell id="1" parent="0" />
        <mxCell id="NZ84gaIjG7b7qAjeDfiD-11" style="edgeStyle=orthogonalEdgeStyle;rounded=0;orthogonalLoop=1;jettySize=auto;html=1;entryX=1;entryY=0.5;entryDx=0;entryDy=0;endArrow=none;endFill=0;" parent="1" source="NZ84gaIjG7b7qAjeDfiD-1" target="NZ84gaIjG7b7qAjeDfiD-8" edge="1">
          <mxGeometry relative="1" as="geometry" />
        </mxCell>
        <mxCell id="NZ84gaIjG7b7qAjeDfiD-41" style="edgeStyle=orthogonalEdgeStyle;shape=connector;rounded=0;orthogonalLoop=1;jettySize=auto;html=1;entryX=0.5;entryY=1;entryDx=0;entryDy=0;strokeColor=default;align=center;verticalAlign=middle;fontFamily=Lucida Console;fontSize=12;fontColor=default;fontStyle=1;labelBackgroundColor=default;endArrow=none;endFill=0;" parent="1" source="NZ84gaIjG7b7qAjeDfiD-1" target="NZ84gaIjG7b7qAjeDfiD-40" edge="1">
          <mxGeometry relative="1" as="geometry" />
        </mxCell>
        <mxCell id="NZ84gaIjG7b7qAjeDfiD-82" style="edgeStyle=orthogonalEdgeStyle;shape=connector;rounded=0;orthogonalLoop=1;jettySize=auto;html=1;entryX=0;entryY=0.5;entryDx=0;entryDy=0;strokeColor=default;align=center;verticalAlign=middle;fontFamily=Lucida Console;fontSize=12;fontColor=default;fontStyle=1;labelBackgroundColor=default;endArrow=none;endFill=0;" parent="1" source="NZ84gaIjG7b7qAjeDfiD-1" target="NZ84gaIjG7b7qAjeDfiD-81" edge="1">
          <mxGeometry relative="1" as="geometry" />
        </mxCell>
        <mxCell id="NZ84gaIjG7b7qAjeDfiD-1" value="User" style="whiteSpace=wrap;html=1;align=center;fillColor=#dae8fc;strokeColor=#6c8ebf;fontFamily=Lucida Console;fontStyle=1;fontSize=14;" parent="1" vertex="1">
          <mxGeometry x="782" y="630" width="100" height="40" as="geometry" />
        </mxCell>
        <mxCell id="NZ84gaIjG7b7qAjeDfiD-12" style="edgeStyle=orthogonalEdgeStyle;rounded=0;orthogonalLoop=1;jettySize=auto;html=1;entryX=1;entryY=0.5;entryDx=0;entryDy=0;endArrow=none;endFill=0;" parent="1" source="NZ84gaIjG7b7qAjeDfiD-8" target="NZ84gaIjG7b7qAjeDfiD-10" edge="1">
          <mxGeometry relative="1" as="geometry" />
        </mxCell>
        <mxCell id="NZ84gaIjG7b7qAjeDfiD-8" value="has" style="shape=rhombus;perimeter=rhombusPerimeter;whiteSpace=wrap;html=1;align=center;fillColor=#ffe6cc;strokeColor=#d79b00;fontFamily=Lucida Console;" parent="1" vertex="1">
          <mxGeometry x="597" y="620" width="120" height="60" as="geometry" />
        </mxCell>
        <mxCell id="NZ84gaIjG7b7qAjeDfiD-19" style="edgeStyle=orthogonalEdgeStyle;shape=connector;rounded=0;orthogonalLoop=1;jettySize=auto;html=1;entryX=0.5;entryY=0;entryDx=0;entryDy=0;strokeColor=default;align=center;verticalAlign=middle;fontFamily=Lucida Console;fontSize=12;fontColor=default;fontStyle=1;labelBackgroundColor=default;endArrow=none;endFill=0;" parent="1" source="NZ84gaIjG7b7qAjeDfiD-10" target="NZ84gaIjG7b7qAjeDfiD-17" edge="1">
          <mxGeometry relative="1" as="geometry" />
        </mxCell>
        <mxCell id="NZ84gaIjG7b7qAjeDfiD-10" value="Workspace" style="whiteSpace=wrap;html=1;align=center;fillColor=#dae8fc;strokeColor=#6c8ebf;fontFamily=Lucida Console;fontStyle=1;fontSize=14;" parent="1" vertex="1">
          <mxGeometry x="437" y="630" width="100" height="40" as="geometry" />
        </mxCell>
        <mxCell id="NZ84gaIjG7b7qAjeDfiD-15" style="edgeStyle=orthogonalEdgeStyle;shape=connector;rounded=0;orthogonalLoop=1;jettySize=auto;html=1;entryX=0;entryY=0.5;entryDx=0;entryDy=0;strokeColor=default;align=center;verticalAlign=middle;fontFamily=Lucida Console;fontSize=12;fontColor=default;fontStyle=1;labelBackgroundColor=default;endArrow=none;endFill=0;" parent="1" source="NZ84gaIjG7b7qAjeDfiD-13" target="NZ84gaIjG7b7qAjeDfiD-14" edge="1">
          <mxGeometry relative="1" as="geometry" />
        </mxCell>
        <mxCell id="NZ84gaIjG7b7qAjeDfiD-18" style="edgeStyle=orthogonalEdgeStyle;shape=connector;rounded=0;orthogonalLoop=1;jettySize=auto;html=1;entryX=0.5;entryY=1;entryDx=0;entryDy=0;strokeColor=default;align=center;verticalAlign=middle;fontFamily=Lucida Console;fontSize=12;fontColor=default;fontStyle=1;labelBackgroundColor=default;endArrow=none;endFill=0;" parent="1" source="NZ84gaIjG7b7qAjeDfiD-13" target="NZ84gaIjG7b7qAjeDfiD-17" edge="1">
          <mxGeometry relative="1" as="geometry" />
        </mxCell>
        <mxCell id="NZ84gaIjG7b7qAjeDfiD-22" style="edgeStyle=orthogonalEdgeStyle;shape=connector;rounded=0;orthogonalLoop=1;jettySize=auto;html=1;entryX=0.5;entryY=0;entryDx=0;entryDy=0;strokeColor=default;align=center;verticalAlign=middle;fontFamily=Lucida Console;fontSize=12;fontColor=default;fontStyle=1;labelBackgroundColor=default;endArrow=none;endFill=0;" parent="1" source="NZ84gaIjG7b7qAjeDfiD-13" target="NZ84gaIjG7b7qAjeDfiD-20" edge="1">
          <mxGeometry relative="1" as="geometry" />
        </mxCell>
        <mxCell id="NZ84gaIjG7b7qAjeDfiD-13" value="Board" style="whiteSpace=wrap;html=1;align=center;fillColor=#dae8fc;strokeColor=#6c8ebf;fontFamily=Lucida Console;fontStyle=1;fontSize=14;" parent="1" vertex="1">
          <mxGeometry x="437" y="790" width="100" height="40" as="geometry" />
        </mxCell>
        <mxCell id="NZ84gaIjG7b7qAjeDfiD-16" style="edgeStyle=orthogonalEdgeStyle;shape=connector;rounded=0;orthogonalLoop=1;jettySize=auto;html=1;entryX=0.5;entryY=1;entryDx=0;entryDy=0;strokeColor=default;align=center;verticalAlign=middle;fontFamily=Lucida Console;fontSize=12;fontColor=default;fontStyle=1;labelBackgroundColor=default;endArrow=none;endFill=0;" parent="1" source="NZ84gaIjG7b7qAjeDfiD-14" target="NZ84gaIjG7b7qAjeDfiD-1" edge="1">
          <mxGeometry relative="1" as="geometry" />
        </mxCell>
        <mxCell id="NZ84gaIjG7b7qAjeDfiD-14" value="is part of" style="shape=rhombus;perimeter=rhombusPerimeter;whiteSpace=wrap;html=1;align=center;fillColor=#ffe6cc;strokeColor=#d79b00;fontFamily=Lucida Console;" parent="1" vertex="1">
          <mxGeometry x="597" y="780" width="120" height="60" as="geometry" />
        </mxCell>
        <mxCell id="NZ84gaIjG7b7qAjeDfiD-17" value="is part of" style="shape=rhombus;perimeter=rhombusPerimeter;whiteSpace=wrap;html=1;align=center;fillColor=#ffe6cc;strokeColor=#d79b00;fontFamily=Lucida Console;" parent="1" vertex="1">
          <mxGeometry x="427" y="700" width="120" height="60" as="geometry" />
        </mxCell>
        <mxCell id="NZ84gaIjG7b7qAjeDfiD-23" style="edgeStyle=orthogonalEdgeStyle;shape=connector;rounded=0;orthogonalLoop=1;jettySize=auto;html=1;entryX=0.5;entryY=0;entryDx=0;entryDy=0;strokeColor=default;align=center;verticalAlign=middle;fontFamily=Lucida Console;fontSize=12;fontColor=default;fontStyle=1;labelBackgroundColor=default;endArrow=none;endFill=0;" parent="1" source="NZ84gaIjG7b7qAjeDfiD-20" target="NZ84gaIjG7b7qAjeDfiD-21" edge="1">
          <mxGeometry relative="1" as="geometry" />
        </mxCell>
        <mxCell id="NZ84gaIjG7b7qAjeDfiD-20" value="is part of" style="shape=rhombus;perimeter=rhombusPerimeter;whiteSpace=wrap;html=1;align=center;fillColor=#ffe6cc;strokeColor=#d79b00;fontFamily=Lucida Console;" parent="1" vertex="1">
          <mxGeometry x="427" y="890" width="120" height="60" as="geometry" />
        </mxCell>
        <mxCell id="NZ84gaIjG7b7qAjeDfiD-26" style="edgeStyle=orthogonalEdgeStyle;shape=connector;rounded=0;orthogonalLoop=1;jettySize=auto;html=1;entryX=0.5;entryY=0;entryDx=0;entryDy=0;strokeColor=default;align=center;verticalAlign=middle;fontFamily=Lucida Console;fontSize=12;fontColor=default;fontStyle=1;labelBackgroundColor=default;endArrow=none;endFill=0;" parent="1" source="NZ84gaIjG7b7qAjeDfiD-21" target="NZ84gaIjG7b7qAjeDfiD-24" edge="1">
          <mxGeometry relative="1" as="geometry" />
        </mxCell>
        <mxCell id="NZ84gaIjG7b7qAjeDfiD-21" value="List" style="whiteSpace=wrap;html=1;align=center;fillColor=#dae8fc;strokeColor=#6c8ebf;fontFamily=Lucida Console;fontStyle=1;fontSize=14;" parent="1" vertex="1">
          <mxGeometry x="437" y="1010" width="100" height="40" as="geometry" />
        </mxCell>
        <mxCell id="NZ84gaIjG7b7qAjeDfiD-28" style="edgeStyle=orthogonalEdgeStyle;shape=connector;rounded=0;orthogonalLoop=1;jettySize=auto;html=1;entryX=0;entryY=0.5;entryDx=0;entryDy=0;strokeColor=default;align=center;verticalAlign=middle;fontFamily=Lucida Console;fontSize=12;fontColor=default;fontStyle=1;labelBackgroundColor=default;endArrow=none;endFill=0;" parent="1" source="NZ84gaIjG7b7qAjeDfiD-24" target="NZ84gaIjG7b7qAjeDfiD-25" edge="1">
          <mxGeometry relative="1" as="geometry" />
        </mxCell>
        <mxCell id="NZ84gaIjG7b7qAjeDfiD-24" value="is part of" style="shape=rhombus;perimeter=rhombusPerimeter;whiteSpace=wrap;html=1;align=center;fillColor=#ffe6cc;strokeColor=#d79b00;fontFamily=Lucida Console;" parent="1" vertex="1">
          <mxGeometry x="427" y="1120" width="120" height="60" as="geometry" />
        </mxCell>
        <mxCell id="NZ84gaIjG7b7qAjeDfiD-33" style="edgeStyle=orthogonalEdgeStyle;shape=connector;rounded=0;orthogonalLoop=1;jettySize=auto;html=1;entryX=1;entryY=0.5;entryDx=0;entryDy=0;strokeColor=default;align=center;verticalAlign=middle;fontFamily=Lucida Console;fontSize=12;fontColor=default;fontStyle=1;labelBackgroundColor=default;endArrow=none;endFill=0;" parent="1" source="NZ84gaIjG7b7qAjeDfiD-25" target="NZ84gaIjG7b7qAjeDfiD-29" edge="1">
          <mxGeometry relative="1" as="geometry">
            <Array as="points">
              <mxPoint x="777" y="1150" />
              <mxPoint x="777" y="1240" />
            </Array>
          </mxGeometry>
        </mxCell>
        <mxCell id="NZ84gaIjG7b7qAjeDfiD-36" style="edgeStyle=orthogonalEdgeStyle;shape=connector;rounded=0;orthogonalLoop=1;jettySize=auto;html=1;entryX=0;entryY=0.5;entryDx=0;entryDy=0;strokeColor=default;align=center;verticalAlign=middle;fontFamily=Lucida Console;fontSize=12;fontColor=default;fontStyle=1;labelBackgroundColor=default;endArrow=none;endFill=0;" parent="1" source="NZ84gaIjG7b7qAjeDfiD-25" target="NZ84gaIjG7b7qAjeDfiD-35" edge="1">
          <mxGeometry relative="1" as="geometry" />
        </mxCell>
        <mxCell id="NZ84gaIjG7b7qAjeDfiD-25" value="Task" style="whiteSpace=wrap;html=1;align=center;fillColor=#dae8fc;strokeColor=#6c8ebf;fontFamily=Lucida Console;fontStyle=1;fontSize=14;" parent="1" vertex="1">
          <mxGeometry x="647" y="1130" width="100" height="40" as="geometry" />
        </mxCell>
        <mxCell id="NZ84gaIjG7b7qAjeDfiD-32" style="edgeStyle=orthogonalEdgeStyle;shape=connector;rounded=0;orthogonalLoop=1;jettySize=auto;html=1;entryX=0.5;entryY=1;entryDx=0;entryDy=0;strokeColor=default;align=center;verticalAlign=middle;fontFamily=Lucida Console;fontSize=12;fontColor=default;fontStyle=1;labelBackgroundColor=default;endArrow=none;endFill=0;" parent="1" source="NZ84gaIjG7b7qAjeDfiD-29" target="NZ84gaIjG7b7qAjeDfiD-25" edge="1">
          <mxGeometry relative="1" as="geometry" />
        </mxCell>
        <mxCell id="NZ84gaIjG7b7qAjeDfiD-29" value="is part of" style="shape=rhombus;perimeter=rhombusPerimeter;whiteSpace=wrap;html=1;align=center;fillColor=#ffe6cc;strokeColor=#d79b00;fontFamily=Lucida Console;" parent="1" vertex="1">
          <mxGeometry x="637" y="1210" width="120" height="60" as="geometry" />
        </mxCell>
        <mxCell id="NZ84gaIjG7b7qAjeDfiD-34" value="Tag" style="whiteSpace=wrap;html=1;align=center;fillColor=#dae8fc;strokeColor=#6c8ebf;fontFamily=Lucida Console;fontStyle=1;fontSize=14;" parent="1" vertex="1">
          <mxGeometry x="997" y="1130" width="100" height="40" as="geometry" />
        </mxCell>
        <mxCell id="NZ84gaIjG7b7qAjeDfiD-37" style="edgeStyle=orthogonalEdgeStyle;shape=connector;rounded=0;orthogonalLoop=1;jettySize=auto;html=1;entryX=0;entryY=0.5;entryDx=0;entryDy=0;strokeColor=default;align=center;verticalAlign=middle;fontFamily=Lucida Console;fontSize=12;fontColor=default;fontStyle=1;labelBackgroundColor=default;endArrow=none;endFill=0;" parent="1" source="NZ84gaIjG7b7qAjeDfiD-35" target="NZ84gaIjG7b7qAjeDfiD-34" edge="1">
          <mxGeometry relative="1" as="geometry" />
        </mxCell>
        <mxCell id="NZ84gaIjG7b7qAjeDfiD-35" value="has" style="shape=rhombus;perimeter=rhombusPerimeter;whiteSpace=wrap;html=1;align=center;fillColor=#ffe6cc;strokeColor=#d79b00;fontFamily=Lucida Console;" parent="1" vertex="1">
          <mxGeometry x="827" y="1120" width="120" height="60" as="geometry" />
        </mxCell>
        <mxCell id="NZ84gaIjG7b7qAjeDfiD-43" style="edgeStyle=orthogonalEdgeStyle;shape=connector;rounded=0;orthogonalLoop=1;jettySize=auto;html=1;entryX=1;entryY=0.5;entryDx=0;entryDy=0;strokeColor=default;align=center;verticalAlign=middle;fontFamily=Lucida Console;fontSize=12;fontColor=default;fontStyle=1;labelBackgroundColor=default;endArrow=none;endFill=0;" parent="1" source="NZ84gaIjG7b7qAjeDfiD-38" target="NZ84gaIjG7b7qAjeDfiD-39" edge="1">
          <mxGeometry relative="1" as="geometry" />
        </mxCell>
        <mxCell id="NZ84gaIjG7b7qAjeDfiD-38" value="Team" style="whiteSpace=wrap;html=1;align=center;fillColor=#dae8fc;strokeColor=#6c8ebf;fontFamily=Lucida Console;fontStyle=1;fontSize=14;" parent="1" vertex="1">
          <mxGeometry x="607" y="490" width="100" height="40" as="geometry" />
        </mxCell>
        <mxCell id="NZ84gaIjG7b7qAjeDfiD-44" style="edgeStyle=orthogonalEdgeStyle;shape=connector;rounded=0;orthogonalLoop=1;jettySize=auto;html=1;entryX=0.5;entryY=0;entryDx=0;entryDy=0;strokeColor=default;align=center;verticalAlign=middle;fontFamily=Lucida Console;fontSize=12;fontColor=default;fontStyle=1;labelBackgroundColor=default;endArrow=none;endFill=0;" parent="1" source="NZ84gaIjG7b7qAjeDfiD-39" target="NZ84gaIjG7b7qAjeDfiD-10" edge="1">
          <mxGeometry relative="1" as="geometry" />
        </mxCell>
        <mxCell id="NZ84gaIjG7b7qAjeDfiD-39" value="has" style="shape=rhombus;perimeter=rhombusPerimeter;whiteSpace=wrap;html=1;align=center;fillColor=#ffe6cc;strokeColor=#d79b00;fontFamily=Lucida Console;" parent="1" vertex="1">
          <mxGeometry x="427" y="540" width="120" height="60" as="geometry" />
        </mxCell>
        <mxCell id="NZ84gaIjG7b7qAjeDfiD-42" style="edgeStyle=orthogonalEdgeStyle;shape=connector;rounded=0;orthogonalLoop=1;jettySize=auto;html=1;entryX=1;entryY=0.5;entryDx=0;entryDy=0;strokeColor=default;align=center;verticalAlign=middle;fontFamily=Lucida Console;fontSize=12;fontColor=default;fontStyle=1;labelBackgroundColor=default;endArrow=none;endFill=0;" parent="1" source="NZ84gaIjG7b7qAjeDfiD-40" target="NZ84gaIjG7b7qAjeDfiD-38" edge="1">
          <mxGeometry relative="1" as="geometry" />
        </mxCell>
        <mxCell id="NZ84gaIjG7b7qAjeDfiD-40" value="is part of" style="shape=rhombus;perimeter=rhombusPerimeter;whiteSpace=wrap;html=1;align=center;fillColor=#ffe6cc;strokeColor=#d79b00;fontFamily=Lucida Console;" parent="1" vertex="1">
          <mxGeometry x="772" y="540" width="120" height="60" as="geometry" />
        </mxCell>
        <mxCell id="NZ84gaIjG7b7qAjeDfiD-55" style="edgeStyle=orthogonalEdgeStyle;shape=connector;rounded=0;orthogonalLoop=1;jettySize=auto;html=1;entryX=0;entryY=0.5;entryDx=0;entryDy=0;strokeColor=default;align=center;verticalAlign=middle;fontFamily=Lucida Console;fontSize=12;fontColor=default;fontStyle=1;labelBackgroundColor=default;endArrow=none;endFill=0;" parent="1" source="NZ84gaIjG7b7qAjeDfiD-46" target="NZ84gaIjG7b7qAjeDfiD-54" edge="1">
          <mxGeometry relative="1" as="geometry" />
        </mxCell>
        <mxCell id="NZ84gaIjG7b7qAjeDfiD-46" value="Role Ownership" style="whiteSpace=wrap;html=1;align=center;fillColor=#d5e8d4;strokeColor=#82b366;fontFamily=Lucida Console;fontStyle=1;fontSize=14;" parent="1" vertex="1">
          <mxGeometry x="1220" y="630" width="100" height="40" as="geometry" />
        </mxCell>
        <mxCell id="NZ84gaIjG7b7qAjeDfiD-60" style="edgeStyle=orthogonalEdgeStyle;shape=connector;rounded=0;orthogonalLoop=1;jettySize=auto;html=1;entryX=0;entryY=0.5;entryDx=0;entryDy=0;strokeColor=default;align=center;verticalAlign=middle;fontFamily=Lucida Console;fontSize=12;fontColor=default;fontStyle=1;labelBackgroundColor=default;endArrow=none;endFill=0;" parent="1" source="NZ84gaIjG7b7qAjeDfiD-53" target="NZ84gaIjG7b7qAjeDfiD-59" edge="1">
          <mxGeometry relative="1" as="geometry" />
        </mxCell>
        <mxCell id="NZ84gaIjG7b7qAjeDfiD-53" value="Role" style="whiteSpace=wrap;html=1;align=center;fillColor=#dae8fc;strokeColor=#6c8ebf;fontFamily=Lucida Console;fontStyle=1;fontSize=14;" parent="1" vertex="1">
          <mxGeometry x="1540" y="630" width="100" height="40" as="geometry" />
        </mxCell>
        <mxCell id="NZ84gaIjG7b7qAjeDfiD-56" style="edgeStyle=orthogonalEdgeStyle;shape=connector;rounded=0;orthogonalLoop=1;jettySize=auto;html=1;entryX=0;entryY=0.5;entryDx=0;entryDy=0;strokeColor=default;align=center;verticalAlign=middle;fontFamily=Lucida Console;fontSize=12;fontColor=default;fontStyle=1;labelBackgroundColor=default;endArrow=none;endFill=0;" parent="1" source="NZ84gaIjG7b7qAjeDfiD-54" target="NZ84gaIjG7b7qAjeDfiD-53" edge="1">
          <mxGeometry relative="1" as="geometry" />
        </mxCell>
        <mxCell id="NZ84gaIjG7b7qAjeDfiD-54" value="has" style="shape=rhombus;perimeter=rhombusPerimeter;whiteSpace=wrap;html=1;align=center;fillColor=#ffe6cc;strokeColor=#d79b00;fontFamily=Lucida Console;" parent="1" vertex="1">
          <mxGeometry x="1360" y="620" width="120" height="60" as="geometry" />
        </mxCell>
        <mxCell id="NZ84gaIjG7b7qAjeDfiD-57" value="Resource" style="whiteSpace=wrap;html=1;align=center;fillColor=#dae8fc;strokeColor=#6c8ebf;fontFamily=Lucida Console;fontStyle=1;fontSize=14;" parent="1" vertex="1">
          <mxGeometry x="1840" y="560" width="100" height="40" as="geometry" />
        </mxCell>
        <mxCell id="NZ84gaIjG7b7qAjeDfiD-64" style="edgeStyle=orthogonalEdgeStyle;shape=connector;rounded=0;orthogonalLoop=1;jettySize=auto;html=1;entryX=0.5;entryY=1;entryDx=0;entryDy=0;strokeColor=default;align=center;verticalAlign=middle;fontFamily=Lucida Console;fontSize=12;fontColor=default;fontStyle=1;labelBackgroundColor=default;endArrow=none;endFill=0;" parent="1" source="NZ84gaIjG7b7qAjeDfiD-58" target="NZ84gaIjG7b7qAjeDfiD-63" edge="1">
          <mxGeometry relative="1" as="geometry" />
        </mxCell>
        <mxCell id="NZ84gaIjG7b7qAjeDfiD-58" value="Action" style="whiteSpace=wrap;html=1;align=center;fillColor=#dae8fc;strokeColor=#6c8ebf;fontFamily=Lucida Console;fontStyle=1;fontSize=14;" parent="1" vertex="1">
          <mxGeometry x="1840" y="700" width="100" height="40" as="geometry" />
        </mxCell>
        <mxCell id="NZ84gaIjG7b7qAjeDfiD-61" style="edgeStyle=orthogonalEdgeStyle;shape=connector;rounded=0;orthogonalLoop=1;jettySize=auto;html=1;entryX=0;entryY=0.5;entryDx=0;entryDy=0;strokeColor=default;align=center;verticalAlign=middle;fontFamily=Lucida Console;fontSize=12;fontColor=default;fontStyle=1;labelBackgroundColor=default;endArrow=none;endFill=0;" parent="1" source="NZ84gaIjG7b7qAjeDfiD-59" target="NZ84gaIjG7b7qAjeDfiD-57" edge="1">
          <mxGeometry relative="1" as="geometry">
            <Array as="points">
              <mxPoint x="1730" y="580" />
            </Array>
          </mxGeometry>
        </mxCell>
        <mxCell id="NZ84gaIjG7b7qAjeDfiD-62" style="edgeStyle=orthogonalEdgeStyle;shape=connector;rounded=0;orthogonalLoop=1;jettySize=auto;html=1;entryX=0;entryY=0.5;entryDx=0;entryDy=0;strokeColor=default;align=center;verticalAlign=middle;fontFamily=Lucida Console;fontSize=12;fontColor=default;fontStyle=1;labelBackgroundColor=default;endArrow=none;endFill=0;" parent="1" source="NZ84gaIjG7b7qAjeDfiD-59" target="NZ84gaIjG7b7qAjeDfiD-58" edge="1">
          <mxGeometry relative="1" as="geometry">
            <Array as="points">
              <mxPoint x="1730" y="720" />
            </Array>
          </mxGeometry>
        </mxCell>
        <mxCell id="NZ84gaIjG7b7qAjeDfiD-59" value="permits" style="shape=rhombus;perimeter=rhombusPerimeter;whiteSpace=wrap;html=1;align=center;fillColor=#ffe6cc;strokeColor=#d79b00;fontFamily=Lucida Console;" parent="1" vertex="1">
          <mxGeometry x="1670" y="620" width="120" height="60" as="geometry" />
        </mxCell>
        <mxCell id="NZ84gaIjG7b7qAjeDfiD-65" style="edgeStyle=orthogonalEdgeStyle;shape=connector;rounded=0;orthogonalLoop=1;jettySize=auto;html=1;entryX=0.5;entryY=1;entryDx=0;entryDy=0;strokeColor=default;align=center;verticalAlign=middle;fontFamily=Lucida Console;fontSize=12;fontColor=default;fontStyle=1;labelBackgroundColor=default;endArrow=none;endFill=0;" parent="1" source="NZ84gaIjG7b7qAjeDfiD-63" target="NZ84gaIjG7b7qAjeDfiD-57" edge="1">
          <mxGeometry relative="1" as="geometry" />
        </mxCell>
        <mxCell id="NZ84gaIjG7b7qAjeDfiD-63" value="has" style="shape=rhombus;perimeter=rhombusPerimeter;whiteSpace=wrap;html=1;align=center;fillColor=#ffe6cc;strokeColor=#d79b00;fontFamily=Lucida Console;" parent="1" vertex="1">
          <mxGeometry x="1830" y="620" width="120" height="60" as="geometry" />
        </mxCell>
        <mxCell id="NZ84gaIjG7b7qAjeDfiD-67" value="Session" style="whiteSpace=wrap;html=1;align=center;fillColor=#dae8fc;strokeColor=#6c8ebf;fontFamily=Lucida Console;fontStyle=1;fontSize=14;" parent="1" vertex="1">
          <mxGeometry x="1007" y="730" width="100" height="40" as="geometry" />
        </mxCell>
        <mxCell id="NZ84gaIjG7b7qAjeDfiD-72" style="edgeStyle=orthogonalEdgeStyle;shape=connector;rounded=0;orthogonalLoop=1;jettySize=auto;html=1;entryX=0.5;entryY=1;entryDx=0;entryDy=0;strokeColor=default;align=center;verticalAlign=middle;fontFamily=Lucida Console;fontSize=12;fontColor=default;fontStyle=1;labelBackgroundColor=default;endArrow=none;endFill=0;" parent="1" source="NZ84gaIjG7b7qAjeDfiD-70" target="NZ84gaIjG7b7qAjeDfiD-71" edge="1">
          <mxGeometry relative="1" as="geometry" />
        </mxCell>
        <mxCell id="NZ84gaIjG7b7qAjeDfiD-75" style="edgeStyle=orthogonalEdgeStyle;shape=connector;rounded=0;orthogonalLoop=1;jettySize=auto;html=1;entryX=0.5;entryY=0;entryDx=0;entryDy=0;strokeColor=default;align=center;verticalAlign=middle;fontFamily=Lucida Console;fontSize=12;fontColor=default;fontStyle=1;labelBackgroundColor=default;endArrow=none;endFill=0;" parent="1" source="NZ84gaIjG7b7qAjeDfiD-70" target="NZ84gaIjG7b7qAjeDfiD-74" edge="1">
          <mxGeometry relative="1" as="geometry" />
        </mxCell>
        <mxCell id="NZ84gaIjG7b7qAjeDfiD-70" value="Milestone" style="whiteSpace=wrap;html=1;align=center;fillColor=#dae8fc;strokeColor=#6c8ebf;fontFamily=Lucida Console;fontStyle=1;fontSize=14;" parent="1" vertex="1">
          <mxGeometry x="177" y="790" width="100" height="40" as="geometry" />
        </mxCell>
        <mxCell id="NZ84gaIjG7b7qAjeDfiD-73" style="edgeStyle=orthogonalEdgeStyle;shape=connector;rounded=0;orthogonalLoop=1;jettySize=auto;html=1;entryX=0;entryY=0.5;entryDx=0;entryDy=0;strokeColor=default;align=center;verticalAlign=middle;fontFamily=Lucida Console;fontSize=12;fontColor=default;fontStyle=1;labelBackgroundColor=default;endArrow=none;endFill=0;" parent="1" source="NZ84gaIjG7b7qAjeDfiD-71" target="NZ84gaIjG7b7qAjeDfiD-10" edge="1">
          <mxGeometry relative="1" as="geometry">
            <Array as="points">
              <mxPoint x="227" y="650" />
            </Array>
          </mxGeometry>
        </mxCell>
        <mxCell id="NZ84gaIjG7b7qAjeDfiD-71" value="has" style="shape=rhombus;perimeter=rhombusPerimeter;whiteSpace=wrap;html=1;align=center;fillColor=#ffe6cc;strokeColor=#d79b00;fontFamily=Lucida Console;" parent="1" vertex="1">
          <mxGeometry x="167" y="700" width="120" height="60" as="geometry" />
        </mxCell>
        <mxCell id="NZ84gaIjG7b7qAjeDfiD-76" style="edgeStyle=orthogonalEdgeStyle;shape=connector;rounded=0;orthogonalLoop=1;jettySize=auto;html=1;entryX=0.5;entryY=0;entryDx=0;entryDy=0;strokeColor=default;align=center;verticalAlign=middle;fontFamily=Lucida Console;fontSize=12;fontColor=default;fontStyle=1;labelBackgroundColor=default;endArrow=none;endFill=0;" parent="1" source="NZ84gaIjG7b7qAjeDfiD-74" target="NZ84gaIjG7b7qAjeDfiD-25" edge="1">
          <mxGeometry relative="1" as="geometry">
            <Array as="points">
              <mxPoint x="227" y="970" />
              <mxPoint x="697" y="970" />
            </Array>
          </mxGeometry>
        </mxCell>
        <mxCell id="NZ84gaIjG7b7qAjeDfiD-74" value="has" style="shape=rhombus;perimeter=rhombusPerimeter;whiteSpace=wrap;html=1;align=center;fillColor=#ffe6cc;strokeColor=#d79b00;fontFamily=Lucida Console;" parent="1" vertex="1">
          <mxGeometry x="167" y="880" width="120" height="60" as="geometry" />
        </mxCell>
        <mxCell id="NZ84gaIjG7b7qAjeDfiD-77" value="Logs" style="whiteSpace=wrap;html=1;align=center;fillColor=#d5e8d4;strokeColor=#82b366;fontFamily=Lucida Console;fontStyle=1;fontSize=14;" parent="1" vertex="1">
          <mxGeometry x="1260" y="870" width="100" height="40" as="geometry" />
        </mxCell>
        <mxCell id="NZ84gaIjG7b7qAjeDfiD-79" value="Report" style="whiteSpace=wrap;html=1;align=center;fillColor=#d5e8d4;strokeColor=#82b366;fontFamily=Lucida Console;fontStyle=1;fontSize=14;" parent="1" vertex="1">
          <mxGeometry x="1260" y="960" width="100" height="40" as="geometry" />
        </mxCell>
        <mxCell id="NZ84gaIjG7b7qAjeDfiD-83" style="edgeStyle=orthogonalEdgeStyle;shape=connector;rounded=0;orthogonalLoop=1;jettySize=auto;html=1;entryX=0.5;entryY=0;entryDx=0;entryDy=0;strokeColor=default;align=center;verticalAlign=middle;fontFamily=Lucida Console;fontSize=12;fontColor=default;fontStyle=1;labelBackgroundColor=default;endArrow=none;endFill=0;" parent="1" source="NZ84gaIjG7b7qAjeDfiD-81" target="NZ84gaIjG7b7qAjeDfiD-67" edge="1">
          <mxGeometry relative="1" as="geometry" />
        </mxCell>
        <mxCell id="NZ84gaIjG7b7qAjeDfiD-81" value="has" style="shape=rhombus;perimeter=rhombusPerimeter;whiteSpace=wrap;html=1;align=center;fillColor=#ffe6cc;strokeColor=#d79b00;fontFamily=Lucida Console;" parent="1" vertex="1">
          <mxGeometry x="997" y="620" width="120" height="60" as="geometry" />
        </mxCell>
        <mxCell id="XTuhQju4oQTLReJIPfs8-8" style="edgeStyle=orthogonalEdgeStyle;shape=connector;rounded=0;orthogonalLoop=1;jettySize=auto;html=1;entryX=0;entryY=0.5;entryDx=0;entryDy=0;strokeColor=default;align=center;verticalAlign=middle;fontFamily=Helvetica;fontSize=11;fontColor=default;labelBackgroundColor=default;endArrow=none;endFill=0;" edge="1" parent="1" source="NZ84gaIjG7b7qAjeDfiD-85" target="XTuhQju4oQTLReJIPfs8-7">
          <mxGeometry relative="1" as="geometry" />
        </mxCell>
        <mxCell id="NZ84gaIjG7b7qAjeDfiD-85" value="File" style="whiteSpace=wrap;html=1;align=center;fillColor=#dae8fc;strokeColor=#6c8ebf;fontFamily=Lucida Console;fontStyle=1;fontSize=14;" parent="1" vertex="1">
          <mxGeometry x="497" y="1430" width="100" height="40" as="geometry" />
        </mxCell>
        <mxCell id="XTuhQju4oQTLReJIPfs8-2" style="edgeStyle=orthogonalEdgeStyle;rounded=0;orthogonalLoop=1;jettySize=auto;html=1;entryX=0;entryY=0.75;entryDx=0;entryDy=0;endArrow=none;endFill=0;" edge="1" parent="1" source="XTuhQju4oQTLReJIPfs8-1" target="NZ84gaIjG7b7qAjeDfiD-25">
          <mxGeometry relative="1" as="geometry" />
        </mxCell>
        <mxCell id="XTuhQju4oQTLReJIPfs8-3" style="edgeStyle=orthogonalEdgeStyle;shape=connector;rounded=0;orthogonalLoop=1;jettySize=auto;html=1;entryX=0.5;entryY=0;entryDx=0;entryDy=0;strokeColor=default;align=center;verticalAlign=middle;fontFamily=Helvetica;fontSize=11;fontColor=default;labelBackgroundColor=default;endArrow=none;endFill=0;" edge="1" parent="1" source="XTuhQju4oQTLReJIPfs8-1" target="NZ84gaIjG7b7qAjeDfiD-85">
          <mxGeometry relative="1" as="geometry" />
        </mxCell>
        <mxCell id="XTuhQju4oQTLReJIPfs8-1" value="has" style="shape=rhombus;perimeter=rhombusPerimeter;whiteSpace=wrap;html=1;align=center;fillColor=#ffe6cc;strokeColor=#d79b00;fontFamily=Lucida Console;" vertex="1" parent="1">
          <mxGeometry x="487" y="1310" width="120" height="60" as="geometry" />
        </mxCell>
        <mxCell id="XTuhQju4oQTLReJIPfs8-11" style="edgeStyle=orthogonalEdgeStyle;shape=connector;rounded=0;orthogonalLoop=1;jettySize=auto;html=1;entryX=0;entryY=0.5;entryDx=0;entryDy=0;strokeColor=default;align=center;verticalAlign=middle;fontFamily=Helvetica;fontSize=11;fontColor=default;labelBackgroundColor=default;endArrow=none;endFill=0;" edge="1" parent="1" source="XTuhQju4oQTLReJIPfs8-4" target="XTuhQju4oQTLReJIPfs8-10">
          <mxGeometry relative="1" as="geometry" />
        </mxCell>
        <mxCell id="XTuhQju4oQTLReJIPfs8-4" value="Directory" style="whiteSpace=wrap;html=1;align=center;fillColor=#dae8fc;strokeColor=#6c8ebf;fontFamily=Lucida Console;fontStyle=1;fontSize=14;" vertex="1" parent="1">
          <mxGeometry x="792" y="1430" width="100" height="40" as="geometry" />
        </mxCell>
        <mxCell id="XTuhQju4oQTLReJIPfs8-6" value="File Permission" style="whiteSpace=wrap;html=1;align=center;fillColor=#dae8fc;strokeColor=#6c8ebf;fontFamily=Lucida Console;fontStyle=1;fontSize=14;" vertex="1" parent="1">
          <mxGeometry x="1097" y="1430" width="100" height="40" as="geometry" />
        </mxCell>
        <mxCell id="XTuhQju4oQTLReJIPfs8-9" style="edgeStyle=orthogonalEdgeStyle;shape=connector;rounded=0;orthogonalLoop=1;jettySize=auto;html=1;entryX=0;entryY=0.5;entryDx=0;entryDy=0;strokeColor=default;align=center;verticalAlign=middle;fontFamily=Helvetica;fontSize=11;fontColor=default;labelBackgroundColor=default;endArrow=none;endFill=0;" edge="1" parent="1" source="XTuhQju4oQTLReJIPfs8-7" target="XTuhQju4oQTLReJIPfs8-4">
          <mxGeometry relative="1" as="geometry" />
        </mxCell>
        <mxCell id="XTuhQju4oQTLReJIPfs8-7" value="has" style="shape=rhombus;perimeter=rhombusPerimeter;whiteSpace=wrap;html=1;align=center;fillColor=#ffe6cc;strokeColor=#d79b00;fontFamily=Lucida Console;" vertex="1" parent="1">
          <mxGeometry x="637" y="1420" width="120" height="60" as="geometry" />
        </mxCell>
        <mxCell id="XTuhQju4oQTLReJIPfs8-12" style="edgeStyle=orthogonalEdgeStyle;shape=connector;rounded=0;orthogonalLoop=1;jettySize=auto;html=1;entryX=0;entryY=0.5;entryDx=0;entryDy=0;strokeColor=default;align=center;verticalAlign=middle;fontFamily=Helvetica;fontSize=11;fontColor=default;labelBackgroundColor=default;endArrow=none;endFill=0;" edge="1" parent="1" source="XTuhQju4oQTLReJIPfs8-10" target="XTuhQju4oQTLReJIPfs8-6">
          <mxGeometry relative="1" as="geometry" />
        </mxCell>
        <mxCell id="XTuhQju4oQTLReJIPfs8-10" value="has" style="shape=rhombus;perimeter=rhombusPerimeter;whiteSpace=wrap;html=1;align=center;fillColor=#ffe6cc;strokeColor=#d79b00;fontFamily=Lucida Console;" vertex="1" parent="1">
          <mxGeometry x="930" y="1420" width="120" height="60" as="geometry" />
        </mxCell>
        <mxCell id="XTuhQju4oQTLReJIPfs8-18" style="edgeStyle=orthogonalEdgeStyle;shape=connector;rounded=0;orthogonalLoop=1;jettySize=auto;html=1;entryX=0.5;entryY=1;entryDx=0;entryDy=0;strokeColor=default;align=center;verticalAlign=middle;fontFamily=Helvetica;fontSize=11;fontColor=default;labelBackgroundColor=default;endArrow=none;endFill=0;" edge="1" parent="1" source="XTuhQju4oQTLReJIPfs8-13" target="XTuhQju4oQTLReJIPfs8-16">
          <mxGeometry relative="1" as="geometry" />
        </mxCell>
        <mxCell id="XTuhQju4oQTLReJIPfs8-21" style="edgeStyle=orthogonalEdgeStyle;shape=connector;rounded=0;orthogonalLoop=1;jettySize=auto;html=1;entryX=0.5;entryY=0;entryDx=0;entryDy=0;strokeColor=default;align=center;verticalAlign=middle;fontFamily=Helvetica;fontSize=11;fontColor=default;labelBackgroundColor=default;endArrow=none;endFill=0;" edge="1" parent="1" source="XTuhQju4oQTLReJIPfs8-13" target="XTuhQju4oQTLReJIPfs8-19">
          <mxGeometry relative="1" as="geometry" />
        </mxCell>
        <mxCell id="XTuhQju4oQTLReJIPfs8-29" style="edgeStyle=orthogonalEdgeStyle;shape=connector;rounded=0;orthogonalLoop=1;jettySize=auto;html=1;entryX=0;entryY=0.5;entryDx=0;entryDy=0;strokeColor=default;align=center;verticalAlign=middle;fontFamily=Helvetica;fontSize=11;fontColor=default;labelBackgroundColor=default;endArrow=none;endFill=0;exitX=1;exitY=0.75;exitDx=0;exitDy=0;" edge="1" parent="1" source="XTuhQju4oQTLReJIPfs8-13" target="XTuhQju4oQTLReJIPfs8-28">
          <mxGeometry relative="1" as="geometry" />
        </mxCell>
        <mxCell id="XTuhQju4oQTLReJIPfs8-36" style="edgeStyle=orthogonalEdgeStyle;shape=connector;rounded=0;orthogonalLoop=1;jettySize=auto;html=1;entryX=0;entryY=0.5;entryDx=0;entryDy=0;strokeColor=default;align=center;verticalAlign=middle;fontFamily=Helvetica;fontSize=11;fontColor=default;labelBackgroundColor=default;endArrow=none;endFill=0;" edge="1" parent="1" source="XTuhQju4oQTLReJIPfs8-13" target="XTuhQju4oQTLReJIPfs8-35">
          <mxGeometry relative="1" as="geometry" />
        </mxCell>
        <mxCell id="XTuhQju4oQTLReJIPfs8-13" value="Chat Line" style="whiteSpace=wrap;html=1;align=center;fillColor=#dae8fc;strokeColor=#6c8ebf;fontFamily=Lucida Console;fontStyle=1;fontSize=14;" vertex="1" parent="1">
          <mxGeometry x="795" y="1733" width="100" height="40" as="geometry" />
        </mxCell>
        <mxCell id="XTuhQju4oQTLReJIPfs8-22" style="edgeStyle=orthogonalEdgeStyle;shape=connector;rounded=0;orthogonalLoop=1;jettySize=auto;html=1;entryX=0.5;entryY=1;entryDx=0;entryDy=0;strokeColor=default;align=center;verticalAlign=middle;fontFamily=Helvetica;fontSize=11;fontColor=default;labelBackgroundColor=default;endArrow=none;endFill=0;" edge="1" parent="1" source="XTuhQju4oQTLReJIPfs8-14" target="XTuhQju4oQTLReJIPfs8-19">
          <mxGeometry relative="1" as="geometry" />
        </mxCell>
        <mxCell id="XTuhQju4oQTLReJIPfs8-51" style="edgeStyle=orthogonalEdgeStyle;shape=connector;rounded=0;orthogonalLoop=1;jettySize=auto;html=1;entryX=1;entryY=0.5;entryDx=0;entryDy=0;strokeColor=default;align=center;verticalAlign=middle;fontFamily=Helvetica;fontSize=11;fontColor=default;labelBackgroundColor=default;endArrow=none;endFill=0;" edge="1" parent="1" source="XTuhQju4oQTLReJIPfs8-14" target="XTuhQju4oQTLReJIPfs8-50">
          <mxGeometry relative="1" as="geometry" />
        </mxCell>
        <mxCell id="XTuhQju4oQTLReJIPfs8-14" value="Seen" style="whiteSpace=wrap;html=1;align=center;fillColor=#dae8fc;strokeColor=#6c8ebf;fontFamily=Lucida Console;fontStyle=1;fontSize=14;" vertex="1" parent="1">
          <mxGeometry x="795" y="1913" width="100" height="40" as="geometry" />
        </mxCell>
        <mxCell id="XTuhQju4oQTLReJIPfs8-15" value="Reaction" style="whiteSpace=wrap;html=1;align=center;fillColor=#dae8fc;strokeColor=#6c8ebf;fontFamily=Lucida Console;fontStyle=1;fontSize=14;" vertex="1" parent="1">
          <mxGeometry x="795" y="1573" width="100" height="40" as="geometry" />
        </mxCell>
        <mxCell id="XTuhQju4oQTLReJIPfs8-40" style="edgeStyle=orthogonalEdgeStyle;shape=connector;rounded=0;orthogonalLoop=1;jettySize=auto;html=1;entryX=0.5;entryY=1;entryDx=0;entryDy=0;strokeColor=default;align=center;verticalAlign=middle;fontFamily=Helvetica;fontSize=11;fontColor=default;labelBackgroundColor=default;endArrow=none;endFill=0;" edge="1" parent="1" source="XTuhQju4oQTLReJIPfs8-16" target="XTuhQju4oQTLReJIPfs8-15">
          <mxGeometry relative="1" as="geometry" />
        </mxCell>
        <mxCell id="XTuhQju4oQTLReJIPfs8-16" value="has" style="shape=rhombus;perimeter=rhombusPerimeter;whiteSpace=wrap;html=1;align=center;fillColor=#ffe6cc;strokeColor=#d79b00;fontFamily=Lucida Console;" vertex="1" parent="1">
          <mxGeometry x="785" y="1643" width="120" height="60" as="geometry" />
        </mxCell>
        <mxCell id="XTuhQju4oQTLReJIPfs8-19" value="gets" style="shape=rhombus;perimeter=rhombusPerimeter;whiteSpace=wrap;html=1;align=center;fillColor=#ffe6cc;strokeColor=#d79b00;fontFamily=Lucida Console;" vertex="1" parent="1">
          <mxGeometry x="785" y="1813" width="120" height="60" as="geometry" />
        </mxCell>
        <mxCell id="XTuhQju4oQTLReJIPfs8-26" style="edgeStyle=orthogonalEdgeStyle;shape=connector;rounded=0;orthogonalLoop=1;jettySize=auto;html=1;entryX=0.5;entryY=0;entryDx=0;entryDy=0;strokeColor=default;align=center;verticalAlign=middle;fontFamily=Helvetica;fontSize=11;fontColor=default;labelBackgroundColor=default;endArrow=none;endFill=0;" edge="1" parent="1" source="XTuhQju4oQTLReJIPfs8-23" target="XTuhQju4oQTLReJIPfs8-25">
          <mxGeometry relative="1" as="geometry" />
        </mxCell>
        <mxCell id="XTuhQju4oQTLReJIPfs8-23" value="Text" style="whiteSpace=wrap;html=1;align=center;fillColor=#dae8fc;strokeColor=#6c8ebf;fontFamily=Lucida Console;fontStyle=1;fontSize=14;" vertex="1" parent="1">
          <mxGeometry x="1025" y="1593" width="100" height="40" as="geometry" />
        </mxCell>
        <mxCell id="XTuhQju4oQTLReJIPfs8-24" value="Media" style="whiteSpace=wrap;html=1;align=center;fillColor=#dae8fc;strokeColor=#6c8ebf;fontFamily=Lucida Console;fontStyle=1;fontSize=14;" vertex="1" parent="1">
          <mxGeometry x="1025" y="1863" width="100" height="40" as="geometry" />
        </mxCell>
        <mxCell id="XTuhQju4oQTLReJIPfs8-27" style="edgeStyle=orthogonalEdgeStyle;shape=connector;rounded=0;orthogonalLoop=1;jettySize=auto;html=1;entryX=1;entryY=0.25;entryDx=0;entryDy=0;strokeColor=default;align=center;verticalAlign=middle;fontFamily=Helvetica;fontSize=11;fontColor=default;labelBackgroundColor=default;endArrow=none;endFill=0;" edge="1" parent="1" source="XTuhQju4oQTLReJIPfs8-25" target="XTuhQju4oQTLReJIPfs8-13">
          <mxGeometry relative="1" as="geometry" />
        </mxCell>
        <mxCell id="XTuhQju4oQTLReJIPfs8-25" value="has" style="shape=rhombus;perimeter=rhombusPerimeter;whiteSpace=wrap;html=1;align=center;fillColor=#ffe6cc;strokeColor=#d79b00;fontFamily=Lucida Console;" vertex="1" parent="1">
          <mxGeometry x="1015" y="1673" width="120" height="60" as="geometry" />
        </mxCell>
        <mxCell id="XTuhQju4oQTLReJIPfs8-30" style="edgeStyle=orthogonalEdgeStyle;shape=connector;rounded=0;orthogonalLoop=1;jettySize=auto;html=1;entryX=0.5;entryY=0;entryDx=0;entryDy=0;strokeColor=default;align=center;verticalAlign=middle;fontFamily=Helvetica;fontSize=11;fontColor=default;labelBackgroundColor=default;endArrow=none;endFill=0;" edge="1" parent="1" source="XTuhQju4oQTLReJIPfs8-28" target="XTuhQju4oQTLReJIPfs8-24">
          <mxGeometry relative="1" as="geometry" />
        </mxCell>
        <mxCell id="XTuhQju4oQTLReJIPfs8-28" value="has" style="shape=rhombus;perimeter=rhombusPerimeter;whiteSpace=wrap;html=1;align=center;fillColor=#ffe6cc;strokeColor=#d79b00;fontFamily=Lucida Console;" vertex="1" parent="1">
          <mxGeometry x="1015" y="1773" width="120" height="60" as="geometry" />
        </mxCell>
        <mxCell id="XTuhQju4oQTLReJIPfs8-34" style="edgeStyle=orthogonalEdgeStyle;shape=connector;rounded=0;orthogonalLoop=1;jettySize=auto;html=1;entryX=0;entryY=0.5;entryDx=0;entryDy=0;strokeColor=default;align=center;verticalAlign=middle;fontFamily=Helvetica;fontSize=11;fontColor=default;labelBackgroundColor=default;endArrow=none;endFill=0;" edge="1" parent="1" source="XTuhQju4oQTLReJIPfs8-31" target="XTuhQju4oQTLReJIPfs8-13">
          <mxGeometry relative="1" as="geometry" />
        </mxCell>
        <mxCell id="XTuhQju4oQTLReJIPfs8-31" value="has" style="shape=rhombus;perimeter=rhombusPerimeter;whiteSpace=wrap;html=1;align=center;fillColor=#ffe6cc;strokeColor=#d79b00;fontFamily=Lucida Console;" vertex="1" parent="1">
          <mxGeometry x="625" y="1723" width="120" height="60" as="geometry" />
        </mxCell>
        <mxCell id="XTuhQju4oQTLReJIPfs8-33" style="edgeStyle=orthogonalEdgeStyle;shape=connector;rounded=0;orthogonalLoop=1;jettySize=auto;html=1;entryX=0;entryY=0.5;entryDx=0;entryDy=0;strokeColor=default;align=center;verticalAlign=middle;fontFamily=Helvetica;fontSize=11;fontColor=default;labelBackgroundColor=default;endArrow=none;endFill=0;" edge="1" parent="1" source="XTuhQju4oQTLReJIPfs8-32" target="XTuhQju4oQTLReJIPfs8-31">
          <mxGeometry relative="1" as="geometry" />
        </mxCell>
        <mxCell id="XTuhQju4oQTLReJIPfs8-32" value="Room" style="whiteSpace=wrap;html=1;align=center;fillColor=#dae8fc;strokeColor=#6c8ebf;fontFamily=Lucida Console;fontStyle=1;fontSize=14;" vertex="1" parent="1">
          <mxGeometry x="465" y="1733" width="100" height="40" as="geometry" />
        </mxCell>
        <mxCell id="XTuhQju4oQTLReJIPfs8-38" style="edgeStyle=orthogonalEdgeStyle;shape=connector;rounded=0;orthogonalLoop=1;jettySize=auto;html=1;entryX=0;entryY=0.5;entryDx=0;entryDy=0;strokeColor=default;align=center;verticalAlign=middle;fontFamily=Helvetica;fontSize=11;fontColor=default;labelBackgroundColor=default;endArrow=none;endFill=0;" edge="1" parent="1" source="XTuhQju4oQTLReJIPfs8-35" target="XTuhQju4oQTLReJIPfs8-37">
          <mxGeometry relative="1" as="geometry" />
        </mxCell>
        <mxCell id="XTuhQju4oQTLReJIPfs8-35" value="has" style="shape=rhombus;perimeter=rhombusPerimeter;whiteSpace=wrap;html=1;align=center;fillColor=#ffe6cc;strokeColor=#d79b00;fontFamily=Lucida Console;" vertex="1" parent="1">
          <mxGeometry x="1085" y="1723" width="120" height="60" as="geometry" />
        </mxCell>
        <mxCell id="XTuhQju4oQTLReJIPfs8-37" value="Task" style="whiteSpace=wrap;html=1;align=center;fillColor=#dae8fc;strokeColor=#6c8ebf;fontFamily=Lucida Console;fontStyle=1;fontSize=14;" vertex="1" parent="1">
          <mxGeometry x="1275" y="1733" width="100" height="40" as="geometry" />
        </mxCell>
        <mxCell id="XTuhQju4oQTLReJIPfs8-48" style="edgeStyle=orthogonalEdgeStyle;shape=connector;rounded=0;orthogonalLoop=1;jettySize=auto;html=1;entryX=0.5;entryY=1;entryDx=0;entryDy=0;strokeColor=default;align=center;verticalAlign=middle;fontFamily=Helvetica;fontSize=11;fontColor=default;labelBackgroundColor=default;endArrow=none;endFill=0;" edge="1" parent="1" source="XTuhQju4oQTLReJIPfs8-41" target="XTuhQju4oQTLReJIPfs8-47">
          <mxGeometry relative="1" as="geometry" />
        </mxCell>
        <mxCell id="XTuhQju4oQTLReJIPfs8-41" value="Profile" style="whiteSpace=wrap;html=1;align=center;fillColor=#dae8fc;strokeColor=#6c8ebf;fontFamily=Lucida Console;fontStyle=1;fontSize=14;" vertex="1" parent="1">
          <mxGeometry x="465" y="1913" width="100" height="40" as="geometry" />
        </mxCell>
        <mxCell id="XTuhQju4oQTLReJIPfs8-44" style="edgeStyle=orthogonalEdgeStyle;shape=connector;rounded=0;orthogonalLoop=1;jettySize=auto;html=1;entryX=1;entryY=0.5;entryDx=0;entryDy=0;strokeColor=default;align=center;verticalAlign=middle;fontFamily=Helvetica;fontSize=11;fontColor=default;labelBackgroundColor=default;endArrow=none;endFill=0;" edge="1" parent="1" source="XTuhQju4oQTLReJIPfs8-42" target="XTuhQju4oQTLReJIPfs8-41">
          <mxGeometry relative="1" as="geometry" />
        </mxCell>
        <mxCell id="XTuhQju4oQTLReJIPfs8-46" style="edgeStyle=orthogonalEdgeStyle;shape=connector;rounded=0;orthogonalLoop=1;jettySize=auto;html=1;strokeColor=default;align=center;verticalAlign=middle;fontFamily=Helvetica;fontSize=11;fontColor=default;labelBackgroundColor=default;endArrow=none;endFill=0;exitX=1;exitY=0.5;exitDx=0;exitDy=0;" edge="1" parent="1" source="XTuhQju4oQTLReJIPfs8-42">
          <mxGeometry relative="1" as="geometry">
            <mxPoint x="795" y="1760" as="targetPoint" />
            <Array as="points">
              <mxPoint x="770" y="1843" />
              <mxPoint x="770" y="1760" />
            </Array>
          </mxGeometry>
        </mxCell>
        <mxCell id="XTuhQju4oQTLReJIPfs8-42" value="Creates" style="shape=rhombus;perimeter=rhombusPerimeter;whiteSpace=wrap;html=1;align=center;fillColor=#ffe6cc;strokeColor=#d79b00;fontFamily=Lucida Console;" vertex="1" parent="1">
          <mxGeometry x="625" y="1813" width="120" height="60" as="geometry" />
        </mxCell>
        <mxCell id="XTuhQju4oQTLReJIPfs8-49" style="edgeStyle=orthogonalEdgeStyle;shape=connector;rounded=0;orthogonalLoop=1;jettySize=auto;html=1;entryX=0.5;entryY=1;entryDx=0;entryDy=0;strokeColor=default;align=center;verticalAlign=middle;fontFamily=Helvetica;fontSize=11;fontColor=default;labelBackgroundColor=default;endArrow=none;endFill=0;" edge="1" parent="1" source="XTuhQju4oQTLReJIPfs8-47" target="XTuhQju4oQTLReJIPfs8-32">
          <mxGeometry relative="1" as="geometry" />
        </mxCell>
        <mxCell id="XTuhQju4oQTLReJIPfs8-47" value="has" style="shape=rhombus;perimeter=rhombusPerimeter;whiteSpace=wrap;html=1;align=center;fillColor=#ffe6cc;strokeColor=#d79b00;fontFamily=Lucida Console;" vertex="1" parent="1">
          <mxGeometry x="455" y="1813" width="120" height="60" as="geometry" />
        </mxCell>
        <mxCell id="XTuhQju4oQTLReJIPfs8-52" style="edgeStyle=orthogonalEdgeStyle;shape=connector;rounded=0;orthogonalLoop=1;jettySize=auto;html=1;entryX=1;entryY=0.75;entryDx=0;entryDy=0;strokeColor=default;align=center;verticalAlign=middle;fontFamily=Helvetica;fontSize=11;fontColor=default;labelBackgroundColor=default;endArrow=none;endFill=0;" edge="1" parent="1" source="XTuhQju4oQTLReJIPfs8-50" target="XTuhQju4oQTLReJIPfs8-41">
          <mxGeometry relative="1" as="geometry" />
        </mxCell>
        <mxCell id="XTuhQju4oQTLReJIPfs8-50" value="has" style="shape=rhombus;perimeter=rhombusPerimeter;whiteSpace=wrap;html=1;align=center;fillColor=#ffe6cc;strokeColor=#d79b00;fontFamily=Lucida Console;" vertex="1" parent="1">
          <mxGeometry x="625" y="1920" width="120" height="60" as="geometry" />
        </mxCell>
      </root>
    </mxGraphModel>
  </diagram>
</mxfile>
